# AST/ASF file generated using VICON BodyLanguage
# -----------------------------------------------
:version 1.10
:name VICON
:units
  mass 1.0
  length 0.45
  angle deg
:documentation
   .ast/.asf automatically generated from VICON data using
   VICON BodyBuilder and BodyLanguage model FoxedUp or BRILLIANT.MOD
:root
   order TX TY TZ RX RY RZ
   axis XYZ
   position 0 0 0  
   orientation 0 0 0 
:bonedata
  begin
     id 1 
     name lhipjoint
     direction 0.756833 -0.6125 0.228138 
     length 2.53827 
     axis 0 0 0  XYZ
  end
  begin
     id 2 
     name lfemur
     direction 0.34202 -0.939693 0  
     length 6.51821  
     axis 0 0 20  XYZ
    dof rx ry rz
    limits (-160.0 20.0)
           (-70.0 70.0)
           (-60.0 70.0)
  end
  begin
     id 3 
     name ltibia
     direction 0.34202 -0.939693 0   
     length 6.99902   
     axis 0 0 20   XYZ
    dof rx
    limits (-10.0 170.0)
  end
  begin
     id 4 
     name lfoot
     direction 0.0951515 -0.261427 0.960522   
     length 1.92102   
     axis -90 7.62852e-016 20   XYZ
    dof rx rz
    limits (-45.0 90.0)
           (-70.0 20.0)
  end
  begin
     id 5 
     name ltoes
     direction 1.53539e-011 -4.21781e-011 1   
     length 0.964376   
     axis -90 7.62852e-016 20   XYZ
    dof rx
    limits (-90.0 20.0)
  end
  begin
     id 6 
     name rhipjoint
     direction -0.752153 -0.617542 0.230017   
     length 2.51754  
     axis 0 0 0  XYZ 
  end
  begin
     id 7 
     name rfemur
     direction -0.34202 -0.939693 0   
     length 6.82377   
     axis 0 0 -20   XYZ
    dof rx ry rz
    limits (-160.0 20.0)
           (-70.0 70.0)
           (-70.0 60.0)
  end
  begin
     id 8 
     name rtibia
     direction -0.34202 -0.939693 0   
     length 6.98689   
     axis 0 0 -20   XYZ
    dof rx
    limits (-10.0 170.0)
 end
 begin
     id 9 
     name rfoot
     direction -0.0900426 -0.24739 0.964723   
     length 2.03215  
     axis -90 -7.62852e-016 -20   XYZ
    dof rx rz
    limits (-45.0 90.0)
           (-20.0 70.0)
  end
  begin
     id 10 
     name rtoes
     direction -1.53466e-011 -4.22206e-011 1   
     length 1.0197   
     axis -90 -7.62852e-016 -20   XYZ
    dof rx
    limits (-90.0 20.0)
  end
  begin
     id 11 
     name lowerback
     direction 0.0184183 0.995705 -0.0907278   
     length 2.019   
     axis 0 0 0   XYZ
    dof rx ry rz
    limits (-20.0 45.0)
           (-30.0 30.0)
           (-30.0 30.0)
  end
  begin
     id 12 
     name upperback
     direction 0.00281055 0.998777 0.0493607   
     length 1.99623   
     axis 0 0 0   XYZ
    dof rx ry rz
    limits (-20.0 45.0)
           (-30.0 30.0)
           (-30.0 30.0)
  end
  begin
     id 13 
     name thorax
     direction -0.00665507 0.995706 0.092331   
     length 2.02811   
     axis 0 0 0   XYZ
    dof rx ry rz
    limits (-20.0 45.0)
           (-30.0 30.0)
           (-30.0 30.0)
  end
  begin
     id 14 
     name lowerneck
     direction -0.0960965 0.994358 0.0449225   
     length 1.71265   
     axis 0 0 0   XYZ
    dof rx ry rz
    limits (-20.0 45.0)
           (-30.0 30.0)
           (-30.0 30.0)
  end
  begin
     id 15 
     name upperneck
     direction 0.13642 0.985357 -0.102278   
     length 1.73016   
     axis 0 0 0   XYZ
    dof rx ry rz
    limits (-20.0 45.0)
           (-30.0 30.0)
           (-30.0 30.0)
  end
  begin
     id 16
     name head
     direction 0.0556079 0.997632 -0.040479  
     length 1.74275  
     axis 0 0 0   XYZ
    dof rx ry rz
    limits (-20.0 45.0)
           (-30.0 30.0)
           (-30.0 30.0)
  end
  begin
     id 17 
     name lclavicle
     direction 0.90877 0.417247 -0.00652364  
     length 3.25514  
     axis 0 0 0   XYZ
    dof ry rz
    limits (-20.0 10.0)
           (0.0 20.0)
  end
  begin
     id 18 
     name lhumerus
     direction 1 -4.48949e-011 8.31417e-028   
     length 4.84834   
     axis 180 -30 -90   XYZ
    dof rx ry rz
    limits (-60.0 90.0)
           (-90.0 90.0)
           (-90.0 90.0)
  end
  begin
     id 19
     name lradius
     direction 1 -4.48984e-011 3.45616e-027   
     length 2.99713   
     axis 180 -30 -90   XYZ
    dof rx
    limits (-10.0 170.0)
  end
  begin
     id 20
     name lwrist
     direction 1 -4.4891e-011 4.0479e-027   
     length 1.49857   
     axis -1.61768e-015 90 90   XYZ
    dof ry
    limits (-180.0 0.0)
 end
  begin
     id 21 
     name lhand
     direction 1 -4.49025e-011 8.0958e-027   
     length 0.693987   
     axis -5.16581e-015 90 90   XYZ
    dof rx rz
    limits (-90.0 90.0)
           (-45.0 45.0)
  end
  begin
     id 22 
     name lfingers
     direction 1 -4.4888e-011 1.61916e-026   
     length 0.55951   
     axis -1.03316e-014 90 90   XYZ
    dof rx
    limits (0.0 90.0)
  end
  begin
     id 23
     name lthumb
     direction 0.707107 -6.3493e-011 0.707107   
     length 0.803348   
     axis -90 45 2.85299e-015   XYZ
    dof rx rz
    limits (-45.0 45.0)
           (-45.0 45.0)
  end
  begin
     id 24 
     name rclavicle
     direction -0.906655 0.41906 0.0486307   
     length 3.3311  
     axis 0 0 0   XYZ 
    dof ry rz
    limits (-10.0 20.0)
           (-20.0 0.0)
  end
  begin
     id 25 
     name rhumerus
     direction -1 -4.48959e-011 6.37764e-018  
     length 4.93457   
     axis 180 30 90   XYZ
    dof rx ry rz
    limits (-90.0 60.0)
           (-90.0 90.0)
           (-90.0 90.0)
  end
  begin
     id 26 
     name rradius
     direction -1 -4.48957e-011 2.20847e-027   
     length 3.3443   
     axis 180 30 90   XYZ
    dof rx
    limits (-10.0 170.0)
  end
  begin
     id 27 
     name rwrist
     direction -1 -4.49008e-011 4.0479e-027   
     length 1.67215   
     axis -1.61768e-015 -90 -90   XYZ
    dof ry
    limits (-180.0 0.0)
  end
  begin
     id 28
     name rhand
     direction -1 -4.49013e-011 8.0958e-027   
     length 0.677363   
     axis -5.16581e-015 -90 -90   XYZ
    dof rx rz
    limits (-90.0 90.0)
           (-45.0 45.0)
  end
  begin
     id 29
     name rfingers
     direction -1 -4.48832e-011 1.61916e-026   
     length 0.546107   
     axis -1.03316e-014 -90 -90   XYZ
    dof rx
    limits (0.0 90.0)
  end
  begin
     id 30
     name rthumb
     direction -0.707107 -6.34895e-011 0.707107   
     length 0.784104   
     axis -90 -45 -2.85299e-015   XYZ
    dof rx rz
    limits (-45.0 45.0)
           (-45.0 45.0)
  end
:hierarchy
  begin
    root lhipjoint rhipjoint lowerback
    lhipjoint lfemur
    lfemur ltibia
    ltibia lfoot
    lfoot ltoes
    rhipjoint rfemur
    rfemur rtibia
    rtibia rfoot
    rfoot rtoes
    lowerback upperback
    upperback thorax
    thorax lowerneck lclavicle rclavicle
    lowerneck upperneck
    upperneck head
    lclavicle lhumerus
    lhumerus lradius
    lradius lwrist
    lwrist lhand lthumb
    lhand lfingers
    rclavicle rhumerus
    rhumerus rradius
    rradius rwrist
    rwrist rhand rthumb
    rhand rfingers
  end

#!OML:ASF H:\Terrain\Patient Classification 1\junglegym\FridayTest\junglegym.ASF
:FULLY-SPECIFIED
:DEGREES
814
root 9.72943 18.3307 1.28918 178.823 -83.2351 -159.167
lowerback 15.4984 0.86925 2.68394
upperback 0.539752 1.51983 -0.542227
thorax -8.04321 0.595458 -2.43451
lowerneck 3.81129 0.143106 -7.25505
upperneck 28.5733 -3.2834 8.87081
head 8.44087 -2.08732 4.04346
rclavicle -7.30534e-015 -4.69132e-014
rhumerus 72.0235 0.221227 -45.1082
rradius 26.2018
rwrist 11.0547
rhand -23.3117 33.5218
rfingers 7.12502
rthumb 3.1421 3.5652
lclavicle -7.30534e-015 -4.69132e-014
lhumerus 75.1401 -0.855491 38.3433
lradius 32.986
lwrist -23.4374
lhand -8.50374 23.2935
lfingers 7.12502
lthumb 17.4241 52.5326
rfemur -30.3303 -4.47997 26.3425
rtibia 52.0574
rfoot 11.4865 -7.34915
rtoes 25.5248
lfemur -37.1592 3.82606 -21.5045
ltibia 43.6926
lfoot 22.4814 -5.74686
ltoes -39.6993
815
root 10.0557 18.1853 1.32672 172.522 -81.745 -151.329
lowerback 16.0452 1.30458 3.58415
upperback -0.252386 2.35334 -0.058249
thorax -9.15061 0.939516 -2.64547
lowerneck 3.74474 0.214148 -7.74493
upperneck 28.6585 -3.14867 8.82311
head 8.47625 -2.07359 4.12389
rclavicle 1.24489e-014 1.45113e-014
rhumerus 70.2606 2.07137 -44.7364
rradius 26.6266
rwrist 11.7348
rhand -24.2885 35.5649
rfingers 7.12502
rthumb 2.19873 5.59648
lclavicle 1.24489e-014 1.45113e-014
lhumerus 73.5588 -2.79966 38.0415
lradius 32.8663
lwrist -25.36
lhand -12.6833 25.7364
lfingers 7.12502
lthumb 13.3985 55.2856
rfemur -32.1754 -2.60988 27.7705
rtibia 51.4532
rfoot 12.8826 -7.71199
rtoes 18.1304
lfemur -39.1505 3.20351 -19.5266
ltibia 43.411
lfoot 22.8397 -2.35863
ltoes -35.1216
816
root 10.1298 18.1325 1.3348 199.544 -83.6409 -180.459
lowerback 15.8843 0.808142 0.751268
upperback 0.670413 1.09278 -0.548152
thorax -8.17911 0.459244 -1.25654
lowerneck 3.51353 0.335736 -8.98521
upperneck 28.9616 -2.94168 8.86695
head 8.62144 -2.09588 4.3796
rclavicle -9.7653e-015 -3.97569e-015
rhumerus 68.5185 4.19055 -43.8256
rradius 27.4379
rwrist 11.7123
rhand -24.757 36.5044
rfingers 7.12502
rthumb 1.7463 6.53177
lclavicle -9.7653e-015 -3.97569e-015
lhumerus 71.5052 -4.80968 38.1276
lradius 33.1691
lwrist -26.5803
lhand -15.6308 27.639
lfingers 7.12502
lthumb 10.5563 57.3539
rfemur -28.4962 -7.14324 23.4567
rtibia 50.6918
rfoot 12.7226 -3.40353
rtoes -4.26689
lfemur -35.327 1.95045 -23.6531
ltibia 42.0891
lfoot 21.1127 -2.16826
ltoes -31.8106
817
root 10.4508 17.9637 1.36246 176.382 -82.2214 -154.906
lowerback 15.805 1.29279 2.69205
upperback -0.351789 2.2531 0.90524
thorax -9.2047 0.955526 -1.07248
lowerneck 2.86129 0.409852 -10.6859
upperneck 29.3517 -2.75899 9.08388
head 8.88366 -2.1529 4.78186
rclavicle 1.67973e-014 -1.19271e-015
rhumerus 66.8517 6.46207 -41.1688
rradius 28.9264
rwrist 10.0693
rhand -26.7937 36.094
rfingers 7.12502
rthumb -0.220801 6.11438
lclavicle 1.67973e-014 -1.19271e-015
lhumerus 69.1707 -6.56871 39.8026
lradius 33.6099
lwrist -28.4367
lhand -17.7239 28.3091
lfingers 7.12502
lthumb 8.53682 58.1166
rfemur -31.1612 -3.14483 26.6283
rtibia 49.6593
rfoot 12.2072 -8.76221
rtoes 23.3841
lfemur -38.4499 1.3305 -19.5503
ltibia 41.8903
lfoot 20.9499 -0.797427
ltoes -33.1841
818
root 10.6646 17.7916 1.37661 181.432 -82.3444 -159.758
lowerback 15.8182 1.45136 1.18878
upperback -0.375077 2.25531 1.69922
thorax -9.33049 1.04566 0.632133
lowerneck 2.09921 0.489947 -12.5715
upperneck 29.6797 -2.48789 9.25908
head 9.1394 -2.1902 5.21026
rclavicle 3.77691e-015 -1.23246e-014
rhumerus 65.4558 8.88339 -37.7154
rradius 30.8566
rwrist 7.67735
rhand -28.889 35.2696
rfingers 7.12502
rthumb -2.24449 5.30171
lclavicle 3.77691e-015 -1.23246e-014
lhumerus 66.6083 -7.97607 42.0536
lradius 34.2048
lwrist -29.5938
lhand -19.263 28.2569
lfingers 7.12502
lthumb 7.05124 58.1194
rfemur -30.8902 -3.23749 25.7341
rtibia 48.7534
rfoot 11.4821 -9.61187
rtoes 27.2768
lfemur -38.0258 0.39221 -19.9722
ltibia 40.7056
lfoot 19.4861 -0.964496
ltoes -34.6259
819
root 10.8994 17.6132 1.41478 186.643 -82.2301 -164.508
lowerback 16.0294 1.51784 0.481304
upperback -0.569175 2.24702 1.95367
thorax -9.70367 1.08312 1.30397
lowerneck 1.63204 0.628688 -13.6577
upperneck 29.5878 -2.14757 9.41196
head 9.16509 -2.10918 5.48046
rclavicle -2.42517e-014 -2.10712e-014
rhumerus 63.8865 10.8269 -37.3137
rradius 31.9881
rwrist 7.05591
rhand -29.4615 34.5295
rfingers 7.12502
rthumb -2.7974 4.56811
lclavicle -2.42517e-014 -2.10712e-014
lhumerus 64.3125 -9.50111 42.7669
lradius 35.0144
lwrist -29.1548
lhand -20.0153 27.3377
lfingers 7.12502
lthumb 6.32503 57.2232
rfemur -31.0658 -3.23547 24.8263
rtibia 47.664
rfoot 10.4619 -10.7979
rtoes 32.4771
lfemur -38.4131 -0.375395 -20.4981
ltibia 40.7137
lfoot 15.7278 -0.643477
ltoes -35.2358
820
root 11.1509 17.4246 1.51926 186.053 -82.4721 -163.228
lowerback 16.8172 0.344994 6.4328
upperback -1.04525 1.56888 -1.5732
thorax -10.4191 0.320002 -5.79216
lowerneck 1.03113 0.864524 -10.9991
upperneck 29.3464 -2.39498 11.3791
head 9.1576 -1.75729 5.69962
rclavicle -2.21148e-014 -1.88845e-015
rhumerus 60.1226 10.6704 -44.8952
rradius 31.757
rwrist 8.49865
rhand -29.6558 34.8136
rfingers 7.12502
rthumb -2.98509 4.85476
lclavicle -2.21148e-014 -1.88845e-015
lhumerus 64.3395 -12.7528 35.7389
lradius 36.9106
lwrist -25.7377
lhand -20.3488 26.6638
lfingers 7.12502
lthumb 6.00311 56.5587
rfemur -31.4388 -4.27571 24.8082
rtibia 46.7815
rfoot 10.3427 -8.46712
rtoes 21.2409
lfemur -38.7107 -0.700922 -20.6482
ltibia 39.8572
lfoot 11.0867 0.064781
ltoes -31.4981
821
root 11.3172 17.2076 1.55665 177.154 -83.6046 -154.589
lowerback 16.1909 0.684623 3.58776
upperback -0.470098 1.76018 2.49155
thorax -9.60177 0.699946 0.244767
lowerneck 0.533154 0.686729 -15.2392
upperneck 28.8776 -1.70794 9.84313
head 9.07298 -1.94672 5.93004
rclavicle 2.26615e-014 8.74653e-015
rhumerus 60.4057 13.9871 -37.2261
rradius 34.3891
rwrist 4.2499
rhand -28.3863 35.4439
rfingers 7.12502
rthumb -1.75897 5.47142
lclavicle 2.26615e-014 8.74653e-015
lhumerus 60.0621 -12.3249 44.8112
lradius 36.6814
lwrist -28.1438
lhand -20.8944 25.3736
lfingers 7.12502
lthumb 5.47631 55.2829
rfemur -29.7382 -6.44939 25.8292
rtibia 45.7993
rfoot 7.63148 -2.05345
rtoes -22.1834
lfemur -37.9128 0.45281 -20.5791
ltibia 39.1703
lfoot 5.87599 -1.20242
ltoes -25.1493
822
root 11.4562 17.0295 1.52921 207.657 -83.144 -187.78
lowerback 17.6633 0.89846 0.238053
upperback 0.602619 1.27693 1.27148
thorax -9.3009 0.595769 0.925247
lowerneck 0.0401884 0.54846 -15.3518
upperneck 28.4053 -1.82736 10.3077
head 9.00798 -1.92506 6.0994
rclavicle 4.77083e-015 -7.95139e-016
rhumerus 58.2711 14.9341 -38.7409
rradius 35.4883
rwrist 3.17375
rhand -26.7695 35.9862
rfingers 7.12502
rthumb -0.197439 6.00655
lclavicle 4.77083e-015 -7.95139e-016
lhumerus 58.2837 -14.1945 45.5923
lradius 37.5273
lwrist -28.1496
lhand -20.879 24.4814
lfingers 7.12502
lthumb 5.49116 54.3903
rfemur -25.8484 -7.4538 20.846
rtibia 45.1248
rfoot 0.669893 0.310551
rtoes -8.50714
lfemur -34.0156 1.37301 -25.2877
ltibia 38.2626
lfoot 0.773411 -1.48056
ltoes -18.821
823
root 11.6322 16.8576 1.47973 221.745 -82.629 -202.787
lowerback 18.1056 0.942753 -1.48755
upperback 1.00236 0.889221 0.418853
thorax -9.11512 0.457638 1.0794
lowerneck -0.105839 0.442102 -14.8043
upperneck 27.7958 -1.99132 10.6692
head 8.82857 -1.87622 6.10159
rclavicle -1.39149e-014 2.38542e-015
rhumerus 54.8685 16.1013 -40.4501
rradius 37.7473
rwrist 2.84661
rhand -25.6712 34.4145
rfingers 7.12502
rthumb 0.863263 4.43655
lclavicle -1.39149e-014 2.38542e-015
lhumerus 56.4052 -16.2446 46.4147
lradius 38.3501
lwrist -27.8305
lhand -19.9433 23.0891
lfingers 7.12502
lthumb 6.39455 52.9726
rfemur -24.0945 -7.79484 18.7765
rtibia 44.4976
rfoot -5.59138 1.53583
rtoes -13.3743
lfemur -32.9527 2.03379 -27.6211
ltibia 37.8679
lfoot -3.10872 -1.79841
ltoes -14.7112
